<svg width="512" height="512" viewBox="0 0 512 512" fill="none" xmlns="http://www.w3.org/2000/svg">
  <circle cx="256" cy="256" r="200" fill="#dad7cd" opacity="0.7"/>
  <path d="M256 376C322.274 376 376 322.274 376 256C376 189.726 322.274 136 256 136C189.726 136 136 189.726 136 256C136 322.274 189.726 376 256 376Z" stroke="#3a5a40" stroke-width="16" stroke-linecap="round" stroke-linejoin="round"/>
  <path d="M256 316C288.033 316 314 290.033 314 258C314 225.967 288.033 200 256 200C223.967 200 198 225.967 198 258C198 290.033 223.967 316 256 316Z" fill="#588157"/>
  <path d="M256 200V136" stroke="#588157" stroke-width="16" stroke-linecap="round" stroke-linejoin="round"/>
  <path d="M323.856 188.144L376 136" stroke="#a3b18a" stroke-width="16" stroke-linecap="round" stroke-linejoin="round"/>
  <path d="M376 256H314" stroke="#3a5a40" stroke-width="16" stroke-linecap="round" stroke-linejoin="round"/>
  <path d="M323.856 323.856L376 376" stroke="#a3b18a" stroke-width="16" stroke-linecap="round" stroke-linejoin="round"/>
  <path d="M256 376V314" stroke="#588157" stroke-width="16" stroke-linecap="round" stroke-linejoin="round"/>
  <path d="M188.144 323.856L136 376" stroke="#a3b18a" stroke-width="16" stroke-linecap="round" stroke-linejoin="round"/>
  <path d="M136 256H198" stroke="#3a5a40" stroke-width="16" stroke-linecap="round" stroke-linejoin="round"/>
  <path d="M188.144 188.144L136 136" stroke="#a3b18a" stroke-width="16" stroke-linecap="round" stroke-linejoin="round"/>
  <path d="M256 316V316" stroke="#344e41" stroke-width="6" stroke-linecap="round" stroke-dasharray="1 8"/>
  <path d="M256 136V136" stroke="#344e41" stroke-width="6" stroke-linecap="round" stroke-dasharray="1 8"/>
  <path d="M376 256V256" stroke="#344e41" stroke-width="6" stroke-linecap="round" stroke-dasharray="1 8"/>
  <path d="M136 256V256" stroke="#344e41" stroke-width="6" stroke-linecap="round" stroke-dasharray="1 8"/>
  <circle cx="256" cy="256" r="210" stroke="#dad7cd" stroke-width="2" stroke-dasharray="4 8" opacity="0.5"/>
</svg> 